<?xml version="1.0" encoding="utf-8"?>
<!-- Generator: Adobe Illustrator 22.0.1, SVG Export Plug-In . SVG Version: 6.00 Build 0)  -->
<svg version="1.1" xmlns="http://www.w3.org/2000/svg" xmlns:xlink="http://www.w3.org/1999/xlink" x="0px" y="0px"
	 viewBox="0 0 2000 2000" style="enable-background:new 0 0 2000 2000;" xml:space="preserve">
<style type="text/css">
	.st0{display:none;}
	.st1{display:inline;}
	.st2{display:inline;fill:#122B6D;}
	.st3{fill:#FFFFFF;}
</style>
<g id="Чёрный" class="st0">
	<path class="st1" d="M925.6,759.4c0-13,0-25.9,0-39.4c1.8,0,3.7,0,5.7,0c43.2-0.3,86.3-0.4,129.5-1.1c11.4-0.2,23-1.7,34.2-3.9
		c29.6-5.8,43.7-19.8,47.8-49.8c2.8-21.1,3.8-42.5,4.1-63.7c0.4-34.3,0-68.7-1-103c-0.4-12.7-2.9-25.5-5.9-37.9
		c-4.6-18.7-17.1-30.2-35.6-35.7c-17.8-5.2-36.1-6.5-54.4-6.6c-88.5-0.4-177-0.4-265.5-0.4c-0.8,0-1.6,0.2-3.4,0.3
		c0,113.7,0,227.4,0,341.4c-16.2,0-31.4,0-47,0c0-127.2,0-254.1,0-381.5c1.7,0,3.4,0,5,0c96.8,0,193.7-0.1,290.5,0.1
		c30.2,0.1,60.3,2.2,89.5,10.9c21.3,6.4,40.5,16.4,53.6,35.3c10.8,15.5,15.9,33.2,18.4,51.7c4.9,35.3,4,70.8,3.8,106.3
		c-0.2,24.1-1.2,48.3-3,72.4c-1.2,17.5-5.7,34.4-14,50.2c-11.1,21-29.1,33.3-50.8,41.2c-23.6,8.5-48.2,12.1-73,12.7
		c-41.8,1-83.6,0.8-125.5,1.1C927.8,759.8,927,759.6,925.6,759.4z"/>
	<path class="st1" d="M1234.4,649.9c11.7,6.7,20.8,14.8,27.7,25.3c10.5,16,15.5,33.8,17.8,52.5c4.9,39,3.5,78.2,3.3,117.3
		c-0.1,23.5,0.2,47.1-4.4,70.2c-2,10.2-4.6,20.5-8.3,30.2c-11,28.7-33.8,44.1-62,52.5c-29,8.6-58.8,11.3-88.9,11.3
		c-94.5-0.1-189,0-283.4,0c-1.6,0-3.2,0-5.1,0c0-127.4,0-254.3,0-381.4c89.2,0,178.1,0,267.5,0c0,13.2,0,26,0,39.4
		c-73.2,0-146.4,0-219.9,0c0,100.9,0,201.2,0,302c1.7,0.1,3.1,0.3,4.6,0.3c85.6-0.1,171.3-0.1,256.9-0.5c17.5-0.1,34.9-1.7,51.9-6.3
		c23-6.3,34.4-22.3,39-44.6c4.9-24,4.6-48.4,4.6-72.7c-0.1-63.5-0.8-127-1.2-190.4C1234.4,653.5,1234.4,652.2,1234.4,649.9z"/>
	<path class="st1" d="M326.5,1273.7c8.3,2.9,17.4,5,25.6,9.1c19.7,9.8,30.3,26.9,33.5,48.1c3.2,21.1,2.1,42.3-3.2,63
		c-5.8,22.5-21,36-42.5,43.3c-20.9,7.1-42.6,9.6-64.4,9.8c-47.2,0.5-94.3,0.4-141.5,0.4c-37.8,0.1-75.7,0-113.5,0c-2,0-3.9,0-6.2,0
		c0-106.6,0-212.6,0-319.1c1-0.1,2.1-0.4,3.2-0.4c92,0,184,0,276,0.2c14.2,0,28.2,2,41.8,6.5c20.1,6.7,32.7,19.7,36.1,41.1
		c3,18.8,3.9,37.5-1.3,56c-6.2,22.2-19.9,36.9-43,41.8C326.6,1273.5,326.2,1273.8,326.5,1273.7z M54.1,1413.9
		c1.3,0.1,2.1,0.2,2.9,0.2c71-0.1,142,0.1,213-0.5c15.1-0.1,30.2-2.2,45.1-4.9c16.5-3,27.3-13.7,29.5-30.5c1.8-14,2.7-28.3,1.8-42.3
		c-1.6-24.4-10.7-34.1-35.2-37.6c-16.4-2.4-33.2-3.7-49.8-3.8c-68-0.5-136-0.3-204-0.4c-1.1,0-2.2,0.3-3.3,0.5
		C54.1,1334.4,54.1,1373.9,54.1,1413.9z M54.2,1261c2.4,0,4.4,0,6.4,0c58.6,0,117.3,0.1,175.9,0c14,0,28,0,41.9-1.2
		c10.7-0.9,21.4-2.9,31.8-5.8c11.2-3.1,19-11.3,20.7-22.8c1.8-12.8,2.5-25.8,2-38.7c-0.7-16.7-8.5-25.4-24.9-28.3
		c-11.4-2-23.2-2.9-34.8-3c-71.5-0.3-142.9-0.2-214.4-0.2c-1.4,0-2.9,0-4.6,0C54.2,1194.4,54.2,1227.4,54.2,1261z"/>
	<path class="st1" d="M799,1410.7c0,12.1,0,24,0,36.3c-13.5,0-26.5,0-39.8,0c0-106.2,0-212.2,0-318.7c13,0,26.1,0,39.7,0
		c0,33.4,0,66.7,0,101c17.6-19.3,40.6-23.2,63.6-25.9c37.1-4.3,74.2-3.8,110.9,3.7c25.1,5.1,46.9,16,61.2,38.5
		c8.5,13.5,12.7,28.5,14.8,44.1c4,28.9,3.8,57.8-2.3,86.4c-7.5,35.6-28.9,58.8-64,67.3c-48.2,11.6-96.8,12.8-145.3-0.3
		c-15.7-4.2-27.9-12.1-34.9-27.2c-0.8-1.7-1.8-3.2-2.8-4.7C800.1,1411,799.7,1411,799,1410.7z M907.8,1233.2
		c-20.3,1.4-37.4,1.8-54.2,4c-28.8,3.7-44.7,17.7-50.4,44.3c-6.3,30-6.3,60.2-0.2,90.3c5,24.6,20.3,39.3,45.1,43.1
		c13.1,2,26.5,3,39.8,3.5c25,0.9,50,0.8,74.8-3.4c28.7-4.9,42.4-17.6,46.8-46c4.3-28.1,3.8-56.5,0.1-84.7
		c-3.4-25.8-18.2-41.6-43.9-45.4C945.4,1235.9,924.9,1234.8,907.8,1233.2z"/>
	<path class="st1" d="M565.6,1200.9c24.3,0.1,48.6,1.4,72.5,6.7c39.2,8.8,63.2,32.4,70.3,72.3c5.8,32.8,5.8,65.7-1.7,98.2
		c-8.4,36.8-32.4,58.2-68.5,66.7c-30.9,7.3-62.4,8.3-93.9,6.4c-16.9-1-33.9-3-50.4-6.5c-38.5-8.2-62.4-31.7-70.1-70.8
		c-6.5-33.1-6.7-66.2,0.4-99.2c7.9-36.8,31.5-58.2,67.5-66.8C516,1202.3,540.7,1201.1,565.6,1200.9z M565.7,1233.4
		c0,0.3,0,0.6-0.1,0.9c-3,0-6-0.1-9,0c-18.1,0.6-36.3,0.3-54.1,4.6c-19.9,4.9-32.8,16.8-38.1,36.7c-0.9,3.5-1.9,7.1-2.4,10.7
		c-4.2,26-3.9,52.2-0.7,78.2c3.8,30.5,16.1,44.7,45.7,49.9c38.1,6.7,76.6,6.3,114.9,0.7c25.7-3.8,41.4-19,46.3-44.8
		c5.4-28.4,5.7-57,0.8-85.4c-5.1-29.5-19.9-44-49.5-47.6C601.7,1235,583.6,1234.6,565.7,1233.4z"/>
	<path class="st1" d="M1511.6,1452c-24.4-0.2-48.6-1.4-72.4-7.1c-34.7-8.4-58.9-28.2-67.6-63.8c-3.2-13.2-4.9-26.8-6-40.4
		c-1.7-21.5-0.4-42.9,4-64.1c7.8-37.7,31.2-59.9,68.1-68.6c31.9-7.5,64.4-8.4,96.9-6.3c18.2,1.2,36.6,3.3,54.3,7.5
		c36.8,8.7,58.4,32.7,65.2,69.9c5.9,32.3,5.8,64.6-1,96.8c-8,38-32,60.2-69.1,69.1C1560.2,1450.6,1535.9,1451.9,1511.6,1452z
		 M1514.1,1233.2c-20.4,1.4-38.4,1.8-56.2,4c-28.9,3.5-43.2,16.8-49.1,45.1c-5.8,28.2-5.4,56.7-1,85c4.5,29.5,16.4,42.2,45.5,47.2
		c38.3,6.5,77,6.4,115.4,0.4c24.6-3.8,40.2-18.4,45.1-43.1c6.1-30.5,6.3-61.2,0.2-91.8c-4.7-23.7-19.3-38.3-43.1-41.7
		C1551.4,1235.4,1531.5,1234.7,1514.1,1233.2z"/>
	<path class="st1" d="M1138.5,1302.3c6.8,0.3,12.6,0.9,18.6-3c45.6-29.8,91.3-59.3,137.1-88.7c2.5-1.6,5.8-2.6,8.7-2.6
		c16.2-0.2,32.3-0.1,48.5-0.1c1.6,0,3.2,0.1,6.3,0.3c-57.1,37.5-112.9,74.2-169.2,111.2c58.6,42.6,116.7,84.8,176,127.8
		c-3,0.1-4.6,0.3-6.2,0.3c-15.8,0-31.7-0.1-47.5,0.1c-4.1,0.1-7.3-1-10.5-3.5c-46.8-35.3-93.9-70.3-140.6-105.7
		c-6.4-4.9-12.7-6.6-20.9-5.2c0,37.7,0,75.6,0,113.9c-13.5,0-26.4,0-39.7,0c0-106.1,0-212.3,0-318.8c13,0,25.9,0,39.4,0
		C1138.5,1186.1,1138.5,1244,1138.5,1302.3z"/>
	<path class="st1" d="M1678.5,1207.7c10.6-0.5,20.5-1.1,30.4-1.6c5.2-0.3,10.4-0.2,15.5-0.8c3.8-0.5,5.6,0.9,7.2,4.2
		c28.4,57,57,114,85.5,171c6.5,13.1,13.1,26.1,20,40c1.2-2.3,2.2-3.9,3-5.6c33.3-66.7,66.7-133.3,99.9-200.1c1.8-3.5,3.7-5,7.9-4.9
		c13.3,0.3,26.6,0.1,40.8,0.1c-0.9,1.9-1.5,3.3-2.3,4.6c-40.2,76.1-80.3,152.2-120.4,228.3c-1.7,3.2-3.6,4.5-7.3,4.4
		c-16.7-0.2-33.3-0.2-50,0c-3,0-4.7-0.9-6.2-3.7c-40.6-77.2-81.4-154.3-122.1-231.4C1680,1211,1679.4,1209.7,1678.5,1207.7z"/>
</g>
<g id="Слой_2" class="st0">
	<path class="st2" d="M925.6,759.4c0-13,0-25.9,0-39.4c1.8,0,3.7,0,5.7,0c43.2-0.3,86.3-0.4,129.5-1.1c11.4-0.2,23-1.7,34.2-3.9
		c29.6-5.8,43.7-19.8,47.8-49.8c2.8-21.1,3.8-42.5,4.1-63.7c0.4-34.3,0-68.7-1-103c-0.4-12.7-2.9-25.5-5.9-37.9
		c-4.6-18.7-17.1-30.2-35.6-35.7c-17.8-5.2-36.1-6.5-54.4-6.6c-88.5-0.4-177-0.4-265.5-0.4c-0.8,0-1.6,0.2-3.4,0.3
		c0,113.7,0,227.4,0,341.4c-16.2,0-31.4,0-47,0c0-127.2,0-254.1,0-381.5c1.7,0,3.4,0,5,0c96.8,0,193.7-0.1,290.5,0.1
		c30.2,0.1,60.3,2.2,89.5,10.9c21.3,6.4,40.5,16.4,53.6,35.3c10.8,15.5,15.9,33.2,18.4,51.7c4.9,35.3,4,70.8,3.8,106.3
		c-0.2,24.1-1.2,48.3-3,72.4c-1.2,17.5-5.7,34.4-14,50.2c-11.1,21-29.1,33.3-50.8,41.2c-23.6,8.5-48.2,12.1-73,12.7
		c-41.8,1-83.6,0.8-125.5,1.1C927.8,759.8,927,759.6,925.6,759.4z"/>
	<path class="st2" d="M1234.4,649.9c11.7,6.7,20.8,14.8,27.7,25.3c10.5,16,15.5,33.8,17.8,52.5c4.9,39,3.5,78.2,3.3,117.3
		c-0.1,23.5,0.2,47.1-4.4,70.2c-2,10.2-4.6,20.5-8.3,30.2c-11,28.7-33.8,44.1-62,52.5c-29,8.6-58.8,11.3-88.9,11.3
		c-94.5-0.1-189,0-283.4,0c-1.6,0-3.2,0-5.1,0c0-127.4,0-254.3,0-381.4c89.2,0,178.1,0,267.5,0c0,13.2,0,26,0,39.4
		c-73.2,0-146.4,0-219.9,0c0,100.9,0,201.2,0,302c1.7,0.1,3.1,0.3,4.6,0.3c85.6-0.1,171.3-0.1,256.9-0.5c17.5-0.1,34.9-1.7,51.9-6.3
		c23-6.3,34.4-22.3,39-44.6c4.9-24,4.6-48.4,4.6-72.7c-0.1-63.5-0.8-127-1.2-190.4C1234.4,653.5,1234.4,652.2,1234.4,649.9z"/>
	<path class="st2" d="M326.5,1273.7c8.3,2.9,17.4,5,25.6,9.1c19.7,9.8,30.3,26.9,33.5,48.1c3.2,21.1,2.1,42.3-3.2,63
		c-5.8,22.5-21,36-42.5,43.3c-20.9,7.1-42.6,9.6-64.4,9.8c-47.2,0.5-94.3,0.4-141.5,0.4c-37.8,0.1-75.7,0-113.5,0c-2,0-3.9,0-6.2,0
		c0-106.6,0-212.6,0-319.1c1-0.1,2.1-0.4,3.2-0.4c92,0,184,0,276,0.2c14.2,0,28.2,2,41.8,6.5c20.1,6.7,32.7,19.7,36.1,41.1
		c3,18.8,3.9,37.5-1.3,56c-6.2,22.2-19.9,36.9-43,41.8C326.6,1273.5,326.2,1273.8,326.5,1273.7z M54.1,1413.9
		c1.3,0.1,2.1,0.2,2.9,0.2c71-0.1,142,0.1,213-0.5c15.1-0.1,30.2-2.2,45.1-4.9c16.5-3,27.3-13.7,29.5-30.5c1.8-14,2.7-28.3,1.8-42.3
		c-1.6-24.4-10.7-34.1-35.2-37.6c-16.4-2.4-33.2-3.7-49.8-3.8c-68-0.5-136-0.3-204-0.4c-1.1,0-2.2,0.3-3.3,0.5
		C54.1,1334.4,54.1,1373.9,54.1,1413.9z M54.2,1261c2.4,0,4.4,0,6.4,0c58.6,0,117.3,0.1,175.9,0c14,0,28,0,41.9-1.2
		c10.7-0.9,21.4-2.9,31.8-5.8c11.2-3.1,19-11.3,20.7-22.8c1.8-12.8,2.5-25.8,2-38.7c-0.7-16.7-8.5-25.4-24.9-28.3
		c-11.4-2-23.2-2.9-34.8-3c-71.5-0.3-142.9-0.2-214.4-0.2c-1.4,0-2.9,0-4.6,0C54.2,1194.4,54.2,1227.4,54.2,1261z"/>
	<path class="st2" d="M799,1410.7c0,12.1,0,24,0,36.3c-13.5,0-26.5,0-39.8,0c0-106.2,0-212.2,0-318.7c13,0,26.1,0,39.7,0
		c0,33.4,0,66.7,0,101c17.6-19.3,40.6-23.2,63.6-25.9c37.1-4.3,74.2-3.8,110.9,3.7c25.1,5.1,46.9,16,61.2,38.5
		c8.5,13.5,12.7,28.5,14.8,44.1c4,28.9,3.8,57.8-2.3,86.4c-7.5,35.6-28.9,58.8-64,67.3c-48.2,11.6-96.8,12.8-145.3-0.3
		c-15.7-4.2-27.9-12.1-34.9-27.2c-0.8-1.7-1.8-3.2-2.8-4.7C800.1,1411,799.7,1411,799,1410.7z M907.8,1233.2
		c-20.3,1.4-37.4,1.8-54.2,4c-28.8,3.7-44.7,17.7-50.4,44.3c-6.3,30-6.3,60.2-0.2,90.3c5,24.6,20.3,39.3,45.1,43.1
		c13.1,2,26.5,3,39.8,3.5c25,0.9,50,0.8,74.8-3.4c28.7-4.9,42.4-17.6,46.8-46c4.3-28.1,3.8-56.5,0.1-84.7
		c-3.4-25.8-18.2-41.6-43.9-45.4C945.4,1235.9,924.9,1234.8,907.8,1233.2z"/>
	<path class="st2" d="M565.6,1200.9c24.3,0.1,48.6,1.4,72.5,6.7c39.2,8.8,63.2,32.4,70.3,72.3c5.8,32.8,5.8,65.7-1.7,98.2
		c-8.4,36.8-32.4,58.2-68.5,66.7c-30.9,7.3-62.4,8.3-93.9,6.4c-16.9-1-33.9-3-50.4-6.5c-38.5-8.2-62.4-31.7-70.1-70.8
		c-6.5-33.1-6.7-66.2,0.4-99.2c7.9-36.8,31.5-58.2,67.5-66.8C516,1202.3,540.7,1201.1,565.6,1200.9z M565.7,1233.4
		c0,0.3,0,0.6-0.1,0.9c-3,0-6-0.1-9,0c-18.1,0.6-36.3,0.3-54.1,4.6c-19.9,4.9-32.8,16.8-38.1,36.7c-0.9,3.5-1.9,7.1-2.4,10.7
		c-4.2,26-3.9,52.2-0.7,78.2c3.8,30.5,16.1,44.7,45.7,49.9c38.1,6.7,76.6,6.3,114.9,0.7c25.7-3.8,41.4-19,46.3-44.8
		c5.4-28.4,5.7-57,0.8-85.4c-5.1-29.5-19.9-44-49.5-47.6C601.7,1235,583.6,1234.6,565.7,1233.4z"/>
	<path class="st2" d="M1511.6,1452c-24.4-0.2-48.6-1.4-72.4-7.1c-34.7-8.4-58.9-28.2-67.6-63.8c-3.2-13.2-4.9-26.8-6-40.4
		c-1.7-21.5-0.4-42.9,4-64.1c7.8-37.7,31.2-59.9,68.1-68.6c31.9-7.5,64.4-8.4,96.9-6.3c18.2,1.2,36.6,3.3,54.3,7.5
		c36.8,8.7,58.4,32.7,65.2,69.9c5.9,32.3,5.8,64.6-1,96.8c-8,38-32,60.2-69.1,69.1C1560.2,1450.6,1535.9,1451.9,1511.6,1452z
		 M1514.1,1233.2c-20.4,1.4-38.4,1.8-56.2,4c-28.9,3.5-43.2,16.8-49.1,45.1c-5.8,28.2-5.4,56.7-1,85c4.5,29.5,16.4,42.2,45.5,47.2
		c38.3,6.5,77,6.4,115.4,0.4c24.6-3.8,40.2-18.4,45.1-43.1c6.1-30.5,6.3-61.2,0.2-91.8c-4.7-23.7-19.3-38.3-43.1-41.7
		C1551.4,1235.4,1531.5,1234.7,1514.1,1233.2z"/>
	<path class="st2" d="M1138.5,1302.3c6.8,0.3,12.6,0.9,18.6-3c45.6-29.8,91.3-59.3,137.1-88.7c2.5-1.6,5.8-2.6,8.7-2.6
		c16.2-0.2,32.3-0.1,48.5-0.1c1.6,0,3.2,0.1,6.3,0.3c-57.1,37.5-112.9,74.2-169.2,111.2c58.6,42.6,116.7,84.8,176,127.8
		c-3,0.1-4.6,0.3-6.2,0.3c-15.8,0-31.7-0.1-47.5,0.1c-4.1,0.1-7.3-1-10.5-3.5c-46.8-35.3-93.9-70.3-140.6-105.7
		c-6.4-4.9-12.7-6.6-20.9-5.2c0,37.7,0,75.6,0,113.9c-13.5,0-26.4,0-39.7,0c0-106.1,0-212.3,0-318.8c13,0,25.9,0,39.4,0
		C1138.5,1186.1,1138.5,1244,1138.5,1302.3z"/>
	<path class="st2" d="M1678.5,1207.7c10.6-0.5,20.5-1.1,30.4-1.6c5.2-0.3,10.4-0.2,15.5-0.8c3.8-0.5,5.6,0.9,7.2,4.2
		c28.4,57,57,114,85.5,171c6.5,13.1,13.1,26.1,20,40c1.2-2.3,2.2-3.9,3-5.6c33.3-66.7,66.7-133.3,99.9-200.1c1.8-3.5,3.7-5,7.9-4.9
		c13.3,0.3,26.6,0.1,40.8,0.1c-0.9,1.9-1.5,3.3-2.3,4.6c-40.2,76.1-80.3,152.2-120.4,228.3c-1.7,3.2-3.6,4.5-7.3,4.4
		c-16.7-0.2-33.3-0.2-50,0c-3,0-4.7-0.9-6.2-3.7c-40.6-77.2-81.4-154.3-122.1-231.4C1680,1211,1679.4,1209.7,1678.5,1207.7z"/>
</g>
<g id="Слой_3">
	<path class="st3" d="M925.6,759.4c0-13,0-25.9,0-39.4c1.8,0,3.7,0,5.7,0c43.2-0.3,86.3-0.4,129.5-1.1c11.4-0.2,23-1.7,34.2-3.9
		c29.6-5.8,43.7-19.8,47.8-49.8c2.8-21.1,3.8-42.5,4.1-63.7c0.4-34.3,0-68.7-1-103c-0.4-12.7-2.9-25.5-5.9-37.9
		c-4.6-18.7-17.1-30.2-35.6-35.7c-17.8-5.2-36.1-6.5-54.4-6.6c-88.5-0.4-177-0.4-265.5-0.4c-0.8,0-1.6,0.2-3.4,0.3
		c0,113.7,0,227.4,0,341.4c-16.2,0-31.4,0-47,0c0-127.2,0-254.1,0-381.5c1.7,0,3.4,0,5,0c96.8,0,193.7-0.1,290.5,0.1
		c30.2,0.1,60.3,2.2,89.5,10.9c21.3,6.4,40.5,16.4,53.6,35.3c10.8,15.5,15.9,33.2,18.4,51.7c4.9,35.3,4,70.8,3.8,106.3
		c-0.2,24.1-1.2,48.3-3,72.4c-1.2,17.5-5.7,34.4-14,50.2c-11.1,21-29.1,33.3-50.8,41.2c-23.6,8.5-48.2,12.1-73,12.7
		c-41.8,1-83.6,0.8-125.5,1.1C927.8,759.8,927,759.6,925.6,759.4z"/>
	<path class="st3" d="M1234.4,649.9c11.7,6.7,20.8,14.8,27.7,25.3c10.5,16,15.5,33.8,17.8,52.5c4.9,39,3.5,78.2,3.3,117.3
		c-0.1,23.5,0.2,47.1-4.4,70.2c-2,10.2-4.6,20.5-8.3,30.2c-11,28.7-33.8,44.1-62,52.5c-29,8.6-58.8,11.3-88.9,11.3
		c-94.5-0.1-189,0-283.4,0c-1.6,0-3.2,0-5.1,0c0-127.4,0-254.3,0-381.4c89.2,0,178.1,0,267.5,0c0,13.2,0,26,0,39.4
		c-73.2,0-146.4,0-219.9,0c0,100.9,0,201.2,0,302c1.7,0.1,3.1,0.3,4.6,0.3c85.6-0.1,171.3-0.1,256.9-0.5c17.5-0.1,34.9-1.7,51.9-6.3
		c23-6.3,34.4-22.3,39-44.6c4.9-24,4.6-48.4,4.6-72.7c-0.1-63.5-0.8-127-1.2-190.4C1234.4,653.5,1234.4,652.2,1234.4,649.9z"/>
	<path class="st3" d="M326.5,1273.7c8.3,2.9,17.4,5,25.6,9.1c19.7,9.8,30.3,26.9,33.5,48.1c3.2,21.1,2.1,42.3-3.2,63
		c-5.8,22.5-21,36-42.5,43.3c-20.9,7.1-42.6,9.6-64.4,9.8c-47.2,0.5-94.3,0.4-141.5,0.4c-37.8,0.1-75.7,0-113.5,0c-2,0-3.9,0-6.2,0
		c0-106.6,0-212.6,0-319.1c1-0.1,2.1-0.4,3.2-0.4c92,0,184,0,276,0.2c14.2,0,28.2,2,41.8,6.5c20.1,6.7,32.7,19.7,36.1,41.1
		c3,18.8,3.9,37.5-1.3,56c-6.2,22.2-19.9,36.9-43,41.8C326.6,1273.5,326.2,1273.8,326.5,1273.7z M54.1,1413.9
		c1.3,0.1,2.1,0.2,2.9,0.2c71-0.1,142,0.1,213-0.5c15.1-0.1,30.2-2.2,45.1-4.9c16.5-3,27.3-13.7,29.5-30.5c1.8-14,2.7-28.3,1.8-42.3
		c-1.6-24.4-10.7-34.1-35.2-37.6c-16.4-2.4-33.2-3.7-49.8-3.8c-68-0.5-136-0.3-204-0.4c-1.1,0-2.2,0.3-3.3,0.5
		C54.1,1334.4,54.1,1373.9,54.1,1413.9z M54.2,1261c2.4,0,4.4,0,6.4,0c58.6,0,117.3,0.1,175.9,0c14,0,28,0,41.9-1.2
		c10.7-0.9,21.4-2.9,31.8-5.8c11.2-3.1,19-11.3,20.7-22.8c1.8-12.8,2.5-25.8,2-38.7c-0.7-16.7-8.5-25.4-24.9-28.3
		c-11.4-2-23.2-2.9-34.8-3c-71.5-0.3-142.9-0.2-214.4-0.2c-1.4,0-2.9,0-4.6,0C54.2,1194.4,54.2,1227.4,54.2,1261z"/>
	<path class="st3" d="M799,1410.7c0,12.1,0,24,0,36.3c-13.5,0-26.5,0-39.8,0c0-106.2,0-212.2,0-318.7c13,0,26.1,0,39.7,0
		c0,33.4,0,66.7,0,101c17.6-19.3,40.6-23.2,63.6-25.9c37.1-4.3,74.2-3.8,110.9,3.7c25.1,5.1,46.9,16,61.2,38.5
		c8.5,13.5,12.7,28.5,14.8,44.1c4,28.9,3.8,57.8-2.3,86.4c-7.5,35.6-28.9,58.8-64,67.3c-48.2,11.6-96.8,12.8-145.3-0.3
		c-15.7-4.2-27.9-12.1-34.9-27.2c-0.8-1.7-1.8-3.2-2.8-4.7C800.1,1411,799.7,1411,799,1410.7z M907.8,1233.2
		c-20.3,1.4-37.4,1.8-54.2,4c-28.8,3.7-44.7,17.7-50.4,44.3c-6.3,30-6.3,60.2-0.2,90.3c5,24.6,20.3,39.3,45.1,43.1
		c13.1,2,26.5,3,39.8,3.5c25,0.9,50,0.8,74.8-3.4c28.7-4.9,42.4-17.6,46.8-46c4.3-28.1,3.8-56.5,0.1-84.7
		c-3.4-25.8-18.2-41.6-43.9-45.4C945.4,1235.9,924.9,1234.8,907.8,1233.2z"/>
	<path class="st3" d="M565.6,1200.9c24.3,0.1,48.6,1.4,72.5,6.7c39.2,8.8,63.2,32.4,70.3,72.3c5.8,32.8,5.8,65.7-1.7,98.2
		c-8.4,36.8-32.4,58.2-68.5,66.7c-30.9,7.3-62.4,8.3-93.9,6.4c-16.9-1-33.9-3-50.4-6.5c-38.5-8.2-62.4-31.7-70.1-70.8
		c-6.5-33.1-6.7-66.2,0.4-99.2c7.9-36.8,31.5-58.2,67.5-66.8C516,1202.3,540.7,1201.1,565.6,1200.9z M565.7,1233.4
		c0,0.3,0,0.6-0.1,0.9c-3,0-6-0.1-9,0c-18.1,0.6-36.3,0.3-54.1,4.6c-19.9,4.9-32.8,16.8-38.1,36.7c-0.9,3.5-1.9,7.1-2.4,10.7
		c-4.2,26-3.9,52.2-0.7,78.2c3.8,30.5,16.1,44.7,45.7,49.9c38.1,6.7,76.6,6.3,114.9,0.7c25.7-3.8,41.4-19,46.3-44.8
		c5.4-28.4,5.7-57,0.8-85.4c-5.1-29.5-19.9-44-49.5-47.6C601.7,1235,583.6,1234.6,565.7,1233.4z"/>
	<path class="st3" d="M1511.6,1452c-24.4-0.2-48.6-1.4-72.4-7.1c-34.7-8.4-58.9-28.2-67.6-63.8c-3.2-13.2-4.9-26.8-6-40.4
		c-1.7-21.5-0.4-42.9,4-64.1c7.8-37.7,31.2-59.9,68.1-68.6c31.9-7.5,64.4-8.4,96.9-6.3c18.2,1.2,36.6,3.3,54.3,7.5
		c36.8,8.7,58.4,32.7,65.2,69.9c5.9,32.3,5.8,64.6-1,96.8c-8,38-32,60.2-69.1,69.1C1560.2,1450.6,1535.9,1451.9,1511.6,1452z
		 M1514.1,1233.2c-20.4,1.4-38.4,1.8-56.2,4c-28.9,3.5-43.2,16.8-49.1,45.1c-5.8,28.2-5.4,56.7-1,85c4.5,29.5,16.4,42.2,45.5,47.2
		c38.3,6.5,77,6.4,115.4,0.4c24.6-3.8,40.2-18.4,45.1-43.1c6.1-30.5,6.3-61.2,0.2-91.8c-4.7-23.7-19.3-38.3-43.1-41.7
		C1551.4,1235.4,1531.5,1234.7,1514.1,1233.2z"/>
	<path class="st3" d="M1138.5,1302.3c6.8,0.3,12.6,0.9,18.6-3c45.6-29.8,91.3-59.3,137.1-88.7c2.5-1.6,5.8-2.6,8.7-2.6
		c16.2-0.2,32.3-0.1,48.5-0.1c1.6,0,3.2,0.1,6.3,0.3c-57.1,37.5-112.9,74.2-169.2,111.2c58.6,42.6,116.7,84.8,176,127.8
		c-3,0.1-4.6,0.3-6.2,0.3c-15.8,0-31.7-0.1-47.5,0.1c-4.1,0.1-7.3-1-10.5-3.5c-46.8-35.3-93.9-70.3-140.6-105.7
		c-6.4-4.9-12.7-6.6-20.9-5.2c0,37.7,0,75.6,0,113.9c-13.5,0-26.4,0-39.7,0c0-106.1,0-212.3,0-318.8c13,0,25.9,0,39.4,0
		C1138.5,1186.1,1138.5,1244,1138.5,1302.3z"/>
	<path class="st3" d="M1678.5,1207.7c10.6-0.5,20.5-1.1,30.4-1.6c5.2-0.3,10.4-0.2,15.5-0.8c3.8-0.5,5.6,0.9,7.2,4.2
		c28.4,57,57,114,85.5,171c6.5,13.1,13.1,26.1,20,40c1.2-2.3,2.2-3.9,3-5.6c33.3-66.7,66.7-133.3,99.9-200.1c1.8-3.5,3.7-5,7.9-4.9
		c13.3,0.3,26.6,0.1,40.8,0.1c-0.9,1.9-1.5,3.3-2.3,4.6c-40.2,76.1-80.3,152.2-120.4,228.3c-1.7,3.2-3.6,4.5-7.3,4.4
		c-16.7-0.2-33.3-0.2-50,0c-3,0-4.7-0.9-6.2-3.7c-40.6-77.2-81.4-154.3-122.1-231.4C1680,1211,1679.4,1209.7,1678.5,1207.7z"/>
</g>
</svg>
